<?xml version="1.0" encoding="UTF-8"?>
<svg xmlns="http://www.w3.org/2000/svg" xmlns:xlink="http://www.w3.org/1999/xlink" width="1015pt" height="526pt" viewBox="0 0 1015 526" version="1.1">
<defs>
<filter id="alpha" filterUnits="objectBoundingBox" x="0%" y="0%" width="100%" height="100%">
  <feColorMatrix type="matrix" in="SourceGraphic" values="0 0 0 0 1 0 0 0 0 1 0 0 0 0 1 0 0 0 1 0"/>
</filter>
<mask id="mask0">
  <g filter="url(#alpha)">
<rect x="0" y="0" width="1015" height="526" style="fill:rgb(0%,0%,0%);fill-opacity:0.2;stroke:none;"/>
  </g>
</mask>
<clipPath id="clip1">
  <rect x="0" y="0" width="1015" height="526"/>
</clipPath>
<g id="surface5" clip-path="url(#clip1)">
<path style=" stroke:none;fill-rule:nonzero;fill:rgb(42.352941%,38.823529%,100%);fill-opacity:1;" d="M 860.25 189.144531 L 918.828125 189.144531 L 918.828125 207.191406 L 860.25 207.191406 Z M 860.25 189.144531 "/>
</g>
<mask id="mask1">
  <g filter="url(#alpha)">
<rect x="0" y="0" width="1015" height="526" style="fill:rgb(0%,0%,0%);fill-opacity:0.2;stroke:none;"/>
  </g>
</mask>
<clipPath id="clip2">
  <rect x="0" y="0" width="1015" height="526"/>
</clipPath>
<g id="surface8" clip-path="url(#clip2)">
<path style=" stroke:none;fill-rule:nonzero;fill:rgb(42.352941%,38.823529%,100%);fill-opacity:1;" d="M 864.753906 211.203125 L 923.335938 211.203125 L 923.335938 229.246094 L 864.753906 229.246094 Z M 864.753906 211.203125 "/>
</g>
<mask id="mask2">
  <g filter="url(#alpha)">
<rect x="0" y="0" width="1015" height="526" style="fill:rgb(0%,0%,0%);fill-opacity:0.2;stroke:none;"/>
  </g>
</mask>
<clipPath id="clip3">
  <rect x="0" y="0" width="1015" height="526"/>
</clipPath>
<g id="surface11" clip-path="url(#clip3)">
<path style=" stroke:none;fill-rule:nonzero;fill:rgb(42.352941%,38.823529%,100%);fill-opacity:1;" d="M 816.316406 58.148438 L 874.894531 58.148438 L 874.894531 76.191406 L 816.316406 76.191406 Z M 816.316406 58.148438 "/>
</g>
<mask id="mask3">
  <g filter="url(#alpha)">
<rect x="0" y="0" width="1015" height="526" style="fill:rgb(0%,0%,0%);fill-opacity:0.2;stroke:none;"/>
  </g>
</mask>
<clipPath id="clip4">
  <rect x="0" y="0" width="1015" height="526"/>
</clipPath>
<g id="surface14" clip-path="url(#clip4)">
<path style=" stroke:none;fill-rule:nonzero;fill:rgb(42.352941%,38.823529%,100%);fill-opacity:1;" d="M 857.996094 78.867188 L 916.574219 78.867188 L 916.574219 96.914062 L 857.996094 96.914062 Z M 857.996094 78.867188 "/>
</g>
<mask id="mask4">
  <g filter="url(#alpha)">
<rect x="0" y="0" width="1015" height="526" style="fill:rgb(0%,0%,0%);fill-opacity:0.2;stroke:none;"/>
  </g>
</mask>
<clipPath id="clip5">
  <rect x="0" y="0" width="1015" height="526"/>
</clipPath>
<g id="surface17" clip-path="url(#clip5)">
<path style=" stroke:none;fill-rule:nonzero;fill:rgb(42.352941%,38.823529%,100%);fill-opacity:1;" d="M 745.34375 59.484375 L 803.921875 59.484375 L 803.921875 77.53125 L 745.34375 77.53125 Z M 745.34375 59.484375 "/>
</g>
<mask id="mask5">
  <g filter="url(#alpha)">
<rect x="0" y="0" width="1015" height="526" style="fill:rgb(0%,0%,0%);fill-opacity:0.2;stroke:none;"/>
  </g>
</mask>
<clipPath id="clip6">
  <rect x="0" y="0" width="1015" height="526"/>
</clipPath>
<g id="surface20" clip-path="url(#clip6)">
<path style=" stroke:none;fill-rule:nonzero;fill:rgb(42.352941%,38.823529%,100%);fill-opacity:1;" d="M 933.472656 99.585938 L 992.050781 99.585938 L 992.050781 117.632812 L 933.472656 117.632812 Z M 933.472656 99.585938 "/>
</g>
<mask id="mask6">
  <g filter="url(#alpha)">
<rect x="0" y="0" width="1015" height="526" style="fill:rgb(0%,0%,0%);fill-opacity:0.2;stroke:none;"/>
  </g>
</mask>
<clipPath id="clip7">
  <rect x="0" y="0" width="1015" height="526"/>
</clipPath>
<g id="surface23" clip-path="url(#clip7)">
<path style=" stroke:none;fill-rule:nonzero;fill:rgb(42.352941%,38.823529%,100%);fill-opacity:1;" d="M 862.503906 100.921875 L 921.082031 100.921875 L 921.082031 118.96875 L 862.503906 118.96875 Z M 862.503906 100.921875 "/>
</g>
<mask id="mask7">
  <g filter="url(#alpha)">
<rect x="0" y="0" width="1015" height="526" style="fill:rgb(0%,0%,0%);fill-opacity:0.2;stroke:none;"/>
  </g>
</mask>
<clipPath id="clip8">
  <rect x="0" y="0" width="1015" height="526"/>
</clipPath>
<g id="surface26" clip-path="url(#clip8)">
<path style=" stroke:none;fill-rule:nonzero;fill:rgb(42.352941%,38.823529%,100%);fill-opacity:1;" d="M 787.023438 80.203125 L 845.605469 80.203125 L 845.605469 98.25 L 787.023438 98.25 Z M 787.023438 80.203125 "/>
</g>
<mask id="mask8">
  <g filter="url(#alpha)">
<rect x="0" y="0" width="1015" height="526" style="fill:rgb(0%,0%,0%);fill-opacity:0.2;stroke:none;"/>
  </g>
</mask>
<clipPath id="clip9">
  <rect x="0" y="0" width="1015" height="526"/>
</clipPath>
<g id="surface29" clip-path="url(#clip9)">
<path style=" stroke:none;fill-rule:nonzero;fill:rgb(42.352941%,38.823529%,100%);fill-opacity:1;" d="M 930.09375 238.605469 L 988.671875 238.605469 L 988.671875 256.652344 L 930.09375 256.652344 Z M 930.09375 238.605469 "/>
</g>
<mask id="mask9">
  <g filter="url(#alpha)">
<rect x="0" y="0" width="1015" height="526" style="fill:rgb(0%,0%,0%);fill-opacity:0.2;stroke:none;"/>
  </g>
</mask>
<clipPath id="clip10">
  <rect x="0" y="0" width="1015" height="526"/>
</clipPath>
<g id="surface32" clip-path="url(#clip10)">
<path style=" stroke:none;fill-rule:nonzero;fill:rgb(42.352941%,38.823529%,100%);fill-opacity:1;" d="M 859.121094 239.941406 L 917.703125 239.941406 L 917.703125 257.988281 L 859.121094 257.988281 Z M 859.121094 239.941406 "/>
</g>
<mask id="mask10">
  <g filter="url(#alpha)">
<rect x="0" y="0" width="1015" height="526" style="fill:rgb(0%,0%,0%);fill-opacity:0.2;stroke:none;"/>
  </g>
</mask>
<clipPath id="clip11">
  <rect x="0" y="0" width="1015" height="526"/>
</clipPath>
<g id="surface35" clip-path="url(#clip11)">
<path style=" stroke:none;fill-rule:nonzero;fill:rgb(96.078431%,96.078431%,96.078431%);fill-opacity:1;" d="M 0.238281 382.582031 C 0.238281 382.582031 94.449219 373.679688 103.03125 423.773438 C 111.617188 473.867188 284.199219 480.8125 284.199219 480.8125 C 284.199219 480.8125 283.074219 481.265625 280.96875 482.089844 C 138.472656 537.5625 2.265625 517.4375 22.800781 443.75 C 30.425781 416.355469 29.796875 388.839844 0.238281 382.582031 Z M 0.238281 382.582031 "/>
</g>
<mask id="mask11">
  <g filter="url(#alpha)">
<rect x="0" y="0" width="1015" height="526" style="fill:rgb(0%,0%,0%);fill-opacity:0.2;stroke:none;"/>
  </g>
</mask>
<clipPath id="clip12">
  <rect x="0" y="0" width="1015" height="526"/>
</clipPath>
<g id="surface38" clip-path="url(#clip12)">
<path style=" stroke:none;fill-rule:nonzero;fill:rgb(42.352941%,38.823529%,100%);fill-opacity:1;" d="M 0.710938 189.816406 L 59.289062 189.816406 L 59.289062 207.859375 L 0.710938 207.859375 Z M 0.710938 189.816406 "/>
</g>
<mask id="mask12">
  <g filter="url(#alpha)">
<rect x="0" y="0" width="1015" height="526" style="fill:rgb(0%,0%,0%);fill-opacity:0.2;stroke:none;"/>
  </g>
</mask>
<clipPath id="clip13">
  <rect x="0" y="0" width="1015" height="526"/>
</clipPath>
<g id="surface41" clip-path="url(#clip13)">
<path style=" stroke:none;fill-rule:nonzero;fill:rgb(42.352941%,38.823529%,100%);fill-opacity:1;" d="M 42.390625 210.535156 L 100.96875 210.535156 L 100.96875 228.578125 L 42.390625 228.578125 Z M 42.390625 210.535156 "/>
</g>
<mask id="mask13">
  <g filter="url(#alpha)">
<rect x="0" y="0" width="1015" height="526" style="fill:rgb(0%,0%,0%);fill-opacity:0.2;stroke:none;"/>
  </g>
</mask>
<clipPath id="clip14">
  <rect x="0" y="0" width="1015" height="526"/>
</clipPath>
<g id="surface44" clip-path="url(#clip14)">
<path style=" stroke:none;fill-rule:nonzero;fill:rgb(42.352941%,38.823529%,100%);fill-opacity:1;" d="M 358.945312 0 L 417.523438 0 L 417.523438 18.046875 L 358.945312 18.046875 Z M 358.945312 0 "/>
</g>
<mask id="mask14">
  <g filter="url(#alpha)">
<rect x="0" y="0" width="1015" height="526" style="fill:rgb(0%,0%,0%);fill-opacity:0.2;stroke:none;"/>
  </g>
</mask>
<clipPath id="clip15">
  <rect x="0" y="0" width="1015" height="526"/>
</clipPath>
<g id="surface47" clip-path="url(#clip15)">
<path style=" stroke:none;fill-rule:nonzero;fill:rgb(42.352941%,38.823529%,100%);fill-opacity:1;" d="M 820.820312 332.84375 L 879.398438 332.84375 L 879.398438 350.890625 L 820.820312 350.890625 Z M 820.820312 332.84375 "/>
</g>
<mask id="mask15">
  <g filter="url(#alpha)">
<rect x="0" y="0" width="1015" height="526" style="fill:rgb(0%,0%,0%);fill-opacity:0.2;stroke:none;"/>
  </g>
</mask>
<clipPath id="clip16">
  <rect x="0" y="0" width="1015" height="526"/>
</clipPath>
<g id="surface50" clip-path="url(#clip16)">
<path style=" stroke:none;fill-rule:nonzero;fill:rgb(42.352941%,38.823529%,100%);fill-opacity:1;" d="M 46.898438 232.589844 L 105.476562 232.589844 L 105.476562 250.636719 L 46.898438 250.636719 Z M 46.898438 232.589844 "/>
</g>
<mask id="mask16">
  <g filter="url(#alpha)">
<rect x="0" y="0" width="1015" height="526" style="fill:rgb(0%,0%,0%);fill-opacity:0.2;stroke:none;"/>
  </g>
</mask>
<clipPath id="clip17">
  <rect x="0" y="0" width="1015" height="526"/>
</clipPath>
<g id="surface53" clip-path="url(#clip17)">
<path style=" stroke:none;fill-rule:nonzero;fill:rgb(42.352941%,38.823529%,100%);fill-opacity:1;" d="M 400.625 20.71875 L 459.207031 20.71875 L 459.207031 38.765625 L 400.625 38.765625 Z M 400.625 20.71875 "/>
</g>
<mask id="mask17">
  <g filter="url(#alpha)">
<rect x="0" y="0" width="1015" height="526" style="fill:rgb(0%,0%,0%);fill-opacity:0.2;stroke:none;"/>
  </g>
</mask>
<clipPath id="clip18">
  <rect x="0" y="0" width="1015" height="526"/>
</clipPath>
<g id="surface56" clip-path="url(#clip18)">
<path style=" stroke:none;fill-rule:nonzero;fill:rgb(42.352941%,38.823529%,100%);fill-opacity:1;" d="M 186.585938 143.027344 L 245.164062 143.027344 L 245.164062 161.074219 L 186.585938 161.074219 Z M 186.585938 143.027344 "/>
</g>
<mask id="mask18">
  <g filter="url(#alpha)">
<rect x="0" y="0" width="1015" height="526" style="fill:rgb(0%,0%,0%);fill-opacity:0.2;stroke:none;"/>
  </g>
</mask>
<clipPath id="clip19">
  <rect x="0" y="0" width="1015" height="526"/>
</clipPath>
<g id="surface59" clip-path="url(#clip19)">
<path style=" stroke:none;fill-rule:nonzero;fill:rgb(42.352941%,38.823529%,100%);fill-opacity:1;" d="M 228.269531 163.75 L 286.847656 163.75 L 286.847656 181.792969 L 228.269531 181.792969 Z M 228.269531 163.75 "/>
</g>
<mask id="mask19">
  <g filter="url(#alpha)">
<rect x="0" y="0" width="1015" height="526" style="fill:rgb(0%,0%,0%);fill-opacity:0.2;stroke:none;"/>
  </g>
</mask>
<clipPath id="clip20">
  <rect x="0" y="0" width="1015" height="526"/>
</clipPath>
<g id="surface62" clip-path="url(#clip20)">
<path style=" stroke:none;fill-rule:nonzero;fill:rgb(42.352941%,38.823529%,100%);fill-opacity:1;" d="M 339.792969 152.386719 L 398.375 152.386719 L 398.375 170.433594 L 339.792969 170.433594 Z M 339.792969 152.386719 "/>
</g>
<mask id="mask20">
  <g filter="url(#alpha)">
<rect x="0" y="0" width="1015" height="526" style="fill:rgb(0%,0%,0%);fill-opacity:0.2;stroke:none;"/>
  </g>
</mask>
<clipPath id="clip21">
  <rect x="0" y="0" width="1015" height="526"/>
</clipPath>
<g id="surface65" clip-path="url(#clip21)">
<path style=" stroke:none;fill-rule:nonzero;fill:rgb(42.352941%,38.823529%,100%);fill-opacity:1;" d="M 232.773438 185.804688 L 291.351562 185.804688 L 291.351562 203.851562 L 232.773438 203.851562 Z M 232.773438 185.804688 "/>
</g>
<mask id="mask21">
  <g filter="url(#alpha)">
<rect x="0" y="0" width="1015" height="526" style="fill:rgb(0%,0%,0%);fill-opacity:0.2;stroke:none;"/>
  </g>
</mask>
<clipPath id="clip22">
  <rect x="0" y="0" width="1015" height="526"/>
</clipPath>
<g id="surface68" clip-path="url(#clip22)">
<path style=" stroke:none;fill-rule:nonzero;fill:rgb(42.352941%,38.823529%,100%);fill-opacity:1;" d="M 899.675781 332.84375 L 958.257812 332.84375 L 958.257812 350.890625 L 899.675781 350.890625 Z M 899.675781 332.84375 "/>
</g>
<linearGradient id="linear0" gradientUnits="userSpaceOnUse" x1="611.05" y1="646" x2="611.05" y2="103.5" gradientTransform="matrix(1.126526,0,0,0.668361,-168.325527,-37.762389)">
<stop offset="0" style="stop-color:rgb(50.196078%,50.196078%,50.196078%);stop-opacity:0.25098;"/>
<stop offset="0.54" style="stop-color:rgb(50.196078%,50.196078%,50.196078%);stop-opacity:0.121569;"/>
<stop offset="1" style="stop-color:rgb(50.196078%,50.196078%,50.196078%);stop-opacity:0.101961;"/>
</linearGradient>
<mask id="mask22">
  <g filter="url(#alpha)">
<rect x="0" y="0" width="1015" height="526" style="fill:rgb(0%,0%,0%);fill-opacity:0.101961;stroke:none;"/>
  </g>
</mask>
<clipPath id="clip23">
  <rect x="0" y="0" width="1015" height="526"/>
</clipPath>
<g id="surface71" clip-path="url(#clip23)">
<path style=" stroke:none;fill-rule:nonzero;fill:rgb(0%,0%,0%);fill-opacity:1;" d="M 512.097656 176.234375 L 398.082031 190.535156 C 398.082031 190.535156 354.621094 191.597656 326.636719 225.859375 C 298.652344 260.121094 237.921875 357.96875 237.921875 357.96875 C 237.921875 357.96875 289.742188 326.882812 350.449219 360.085938 L 390.9375 316.644531 L 382.003906 385.523438 L 695.71875 385.523438 L 695.71875 353.023438 C 695.71875 353.023438 761.203125 373.859375 756.449219 385.515625 C 756.449219 385.515625 812.496094 299.847656 800.386719 260.914062 C 796.738281 248.878906 794.503906 236.707031 793.695312 224.488281 C 792.226562 203.867188 769.050781 186.023438 735.8125 179.929688 C 729.910156 178.851562 723.421875 177.84375 716.210938 176.941406 C 648.933594 168.46875 631.722656 176.941406 631.722656 176.941406 C 631.722656 176.941406 618.6875 202.097656 618.925781 213.5 C 619.21875 228.160156 583.800781 237.875 583.800781 237.875 C 583.800781 237.875 531.40625 230.457031 529.027344 224.457031 C 526.652344 218.453125 507.90625 183.296875 512.097656 176.234375 Z M 512.097656 176.234375 "/>
</g>
<mask id="mask23">
  <g filter="url(#alpha)">
<rect x="0" y="0" width="1015" height="526" style="fill:rgb(0%,0%,0%);fill-opacity:0.101961;stroke:none;"/>
  </g>
</mask>
<clipPath id="clip24">
  <rect x="0" y="0" width="1015" height="526"/>
</clipPath>
<g id="surface74" clip-path="url(#clip24)">
<path style=" stroke:none;fill-rule:nonzero;fill:rgb(0%,0%,0%);fill-opacity:1;" d="M 628.601562 171.820312 C 623.8125 163.777344 622.738281 155.117188 625.492188 146.746094 L 507.589844 159.101562 C 507.589844 159.101562 509.292969 164.390625 511.21875 172.308594 C 526.613281 181.789062 547.890625 187.101562 570.074219 187.007812 C 592.261719 186.917969 613.410156 181.425781 628.578125 171.820312 Z M 628.601562 171.820312 "/>
</g>
<mask id="mask24">
  <g filter="url(#alpha)">
<rect x="0" y="0" width="1015" height="526" style="fill:rgb(0%,0%,0%);fill-opacity:0.101961;stroke:none;"/>
  </g>
</mask>
<clipPath id="clip25">
  <rect x="0" y="0" width="1015" height="526"/>
</clipPath>
<g id="surface77" clip-path="url(#clip25)">
<path style=" stroke:none;fill-rule:nonzero;fill:rgb(0%,0%,0%);fill-opacity:1;" d="M 539.539062 91.851562 L 539.652344 91.8125 C 537.089844 92.375 534.597656 93.007812 532.171875 93.710938 C 504.386719 101.777344 486.777344 118.527344 486.78125 136.878906 C 486.78125 137.269531 486.78125 137.65625 486.78125 138.042969 C 489.300781 138.003906 491.777344 137.648438 494.050781 137.007812 C 513.785156 131.539062 525.59375 114.816406 530.277344 103.15625 C 531.96875 98.976562 533.554688 94.273438 539.539062 91.851562 Z M 539.539062 91.851562 "/>
<path style=" stroke:none;fill-rule:nonzero;fill:rgb(0%,0%,0%);fill-opacity:1;" d="M 601.507812 93.195312 C 595.101562 91.449219 588.332031 90.210938 581.378906 89.511719 C 587.082031 90.292969 592.171875 92.191406 595.832031 94.902344 C 597.625 96.347656 599.109375 97.917969 600.257812 99.578125 C 578.449219 93.921875 553.554688 94.226562 532.160156 100.414062 C 537.242188 107.023438 553 110.628906 563.523438 113.039062 C 575.042969 115.675781 586.683594 118.089844 598.445312 120.277344 L 588.035156 115.265625 L 611.546875 117.484375 C 611.800781 114.707031 611.242188 111.925781 609.902344 109.261719 C 614.40625 111.414062 620.378906 112.136719 625.265625 113.941406 C 634.425781 117.371094 638.246094 123.96875 643.234375 129.683594 C 644.554688 131.191406 646.109375 132.738281 648.484375 133.691406 C 646.527344 116.105469 628.5 100.5625 601.507812 93.195312 Z M 601.507812 93.195312 "/>
</g>
<mask id="mask25">
  <g filter="url(#alpha)">
<rect x="0" y="0" width="1015" height="526" style="fill:rgb(0%,0%,0%);fill-opacity:0.101961;stroke:none;"/>
  </g>
</mask>
<clipPath id="clip26">
  <rect x="0" y="0" width="1015" height="526"/>
</clipPath>
<g id="surface80" clip-path="url(#clip26)">
<path style=" stroke:none;fill-rule:nonzero;fill:rgb(0%,0%,0%);fill-opacity:1;" d="M 477.546875 127.871094 C 477.546875 127.871094 560.910156 66.382812 657.351562 127.871094 L 649.015625 114.097656 C 649.015625 114.097656 603.761719 74.890625 571.621094 83.351562 C 539.480469 91.8125 507.917969 97.835938 507.917969 97.835938 Z M 477.546875 127.871094 "/>
</g>
<mask id="mask26">
  <g filter="url(#alpha)">
<rect x="0" y="0" width="1015" height="526" style="fill:rgb(0%,0%,0%);fill-opacity:0.101961;stroke:none;"/>
  </g>
</mask>
<clipPath id="clip27">
  <rect x="0" y="0" width="1015" height="526"/>
</clipPath>
<g id="surface83" clip-path="url(#clip27)">
<path style=" stroke:none;fill-rule:nonzero;fill:rgb(0%,0%,0%);fill-opacity:1;" d="M 409.074219 259.242188 C 409.074219 259.242188 391.21875 287.503906 416.21875 312.933594 C 441.214844 338.363281 394.195312 348.964844 394.195312 348.964844 "/>
</g>
<mask id="mask27">
  <g filter="url(#alpha)">
<rect x="0" y="0" width="1015" height="526" style="fill:rgb(0%,0%,0%);fill-opacity:0.101961;stroke:none;"/>
  </g>
</mask>
<clipPath id="clip28">
  <rect x="0" y="0" width="1015" height="526"/>
</clipPath>
<g id="surface86" clip-path="url(#clip28)">
<path style=" stroke:none;fill-rule:nonzero;fill:rgb(0%,0%,0%);fill-opacity:1;" d="M 698.421875 233.8125 C 698.421875 233.8125 729.378906 257.125 709.136719 277.964844 C 688.894531 298.804688 690.085938 348.964844 690.085938 348.964844 "/>
</g>
<mask id="mask28">
  <g filter="url(#alpha)">
<rect x="0" y="0" width="1015" height="526" style="fill:rgb(0%,0%,0%);fill-opacity:0.101961;stroke:none;"/>
  </g>
</mask>
<clipPath id="clip29">
  <rect x="0" y="0" width="1015" height="526"/>
</clipPath>
<g id="surface89" clip-path="url(#clip29)">
<path style="fill:none;stroke-width:1;stroke-linecap:butt;stroke-linejoin:miter;stroke:rgb(0%,0%,0%);stroke-opacity:1;stroke-miterlimit:10;" d="M 577.561441 204.699553 C 577.561441 204.699553 650.278771 132.022918 728.710571 203.372846 " transform="matrix(1.126526,0,0,0.668361,-168.325527,-37.762389)"/>
</g>
<mask id="mask29">
  <g filter="url(#alpha)">
<rect x="0" y="0" width="1015" height="526" style="fill:rgb(0%,0%,0%);fill-opacity:0.101961;stroke:none;"/>
  </g>
</mask>
<clipPath id="clip30">
  <rect x="0" y="0" width="1015" height="526"/>
</clipPath>
<g id="surface92" clip-path="url(#clip30)">
<path style=" stroke:none;fill-rule:nonzero;fill:rgb(0%,0%,0%);fill-opacity:1;" d="M 83.679688 396.339844 L 956.410156 396.339844 L 956.410156 414.382812 L 83.679688 414.382812 Z M 83.679688 396.339844 "/>
</g>
</defs>
<g id="surface1">
<use xlink:href="#surface5" mask="url(#mask0)"/>
<use xlink:href="#surface8" mask="url(#mask1)"/>
<use xlink:href="#surface11" mask="url(#mask2)"/>
<use xlink:href="#surface14" mask="url(#mask3)"/>
<use xlink:href="#surface17" mask="url(#mask4)"/>
<use xlink:href="#surface20" mask="url(#mask5)"/>
<use xlink:href="#surface23" mask="url(#mask6)"/>
<use xlink:href="#surface26" mask="url(#mask7)"/>
<use xlink:href="#surface29" mask="url(#mask8)"/>
<use xlink:href="#surface32" mask="url(#mask9)"/>
<path style=" stroke:none;fill-rule:nonzero;fill:rgb(42.352941%,38.823529%,100%);fill-opacity:1;" d="M 147.292969 184.46875 C 147.292969 184.46875 229.855469 233.453125 183.253906 306.109375 C 136.648438 378.765625 263.132812 499.691406 263.132812 499.691406 C 263.132812 499.691406 261.78125 499.574219 259.269531 499.3125 C 89.707031 481.554688 5.453125 366.496094 99.789062 281.046875 C 134.800781 249.238281 163.570312 211.964844 147.292969 184.46875 Z M 147.292969 184.46875 "/>
<path style="fill:none;stroke-width:2;stroke-linecap:butt;stroke-linejoin:miter;stroke:rgb(32.54902%,32.941176%,38.039216%);stroke-opacity:1;stroke-miterlimit:10;" d="M 280.169719 332.501723 C 280.169719 332.501723 321.540682 422.337876 280.169719 495.622341 C 238.798756 568.900962 273.078644 774.622304 383.009382 804.137142 " transform="matrix(1.126526,0,0,0.668361,-168.325527,-37.762389)"/>
<path style=" stroke:none;fill-rule:nonzero;fill:rgb(42.352941%,38.823529%,100%);fill-opacity:1;" d="M 0.238281 382.582031 C 0.238281 382.582031 94.449219 373.679688 103.03125 423.773438 C 111.617188 473.867188 284.199219 480.8125 284.199219 480.8125 C 284.199219 480.8125 283.074219 481.265625 280.96875 482.089844 C 138.472656 537.5625 2.265625 517.4375 22.800781 443.75 C 30.425781 416.355469 29.796875 388.839844 0.238281 382.582031 Z M 0.238281 382.582031 "/>
<use xlink:href="#surface35" mask="url(#mask10)"/>
<path style="fill:none;stroke-width:2;stroke-linecap:butt;stroke-linejoin:miter;stroke:rgb(32.54902%,32.941176%,38.039216%);stroke-opacity:1;stroke-miterlimit:10;" d="M 149.631519 628.918362 C 149.631519 628.918362 214.539997 643.167308 209.210421 702.191139 C 203.880845 761.209125 305.610902 831.99798 401.699306 775.890566 " transform="matrix(1.126526,0,0,0.668361,-168.325527,-37.762389)"/>
<use xlink:href="#surface38" mask="url(#mask11)"/>
<use xlink:href="#surface41" mask="url(#mask12)"/>
<use xlink:href="#surface44" mask="url(#mask13)"/>
<use xlink:href="#surface47" mask="url(#mask14)"/>
<use xlink:href="#surface50" mask="url(#mask15)"/>
<use xlink:href="#surface53" mask="url(#mask16)"/>
<use xlink:href="#surface56" mask="url(#mask17)"/>
<use xlink:href="#surface59" mask="url(#mask18)"/>
<use xlink:href="#surface62" mask="url(#mask19)"/>
<use xlink:href="#surface65" mask="url(#mask20)"/>
<use xlink:href="#surface68" mask="url(#mask21)"/>
<path style=" stroke:none;fill-rule:nonzero;fill:url(#linear0);" d="M 811.832031 261.402344 C 808.039062 248.878906 805.710938 236.214844 804.867188 223.5 C 803.335938 202.042969 779.222656 183.480469 744.644531 177.128906 C 738.496094 176.007812 731.722656 174.957031 724.242188 174.015625 C 658.679688 165.753906 638.761719 172.964844 636.5 173.914062 C 634.582031 171.847656 632.914062 169.699219 631.507812 167.492188 C 631.394531 167.265625 631.292969 167.035156 631.179688 166.824219 C 644.15625 158.613281 652.0625 148.039062 653.609375 136.820312 C 664.550781 130.242188 670.9375 122.304688 670.9375 113.753906 C 670.9375 106.402344 666.203125 99.503906 657.925781 93.535156 L 657.925781 81.921875 C 657.925781 54.027344 619.808594 31.414062 572.792969 31.414062 L 565.886719 31.414062 C 518.871094 31.414062 480.757812 54.027344 480.757812 81.921875 L 480.757812 94.4375 C 473.242188 100.195312 468.984375 106.765625 468.984375 113.742188 C 468.984375 122.109375 475.113281 129.890625 485.632812 136.386719 C 487.070312 148.015625 495.339844 158.972656 509 167.359375 C 509.460938 169.253906 509.933594 171.292969 510.394531 173.445312 L 393.125 188.144531 C 393.125 188.144531 347.90625 189.246094 318.773438 224.902344 C 294.136719 255.105469 245.109375 332.703125 230.589844 355.800781 C 227.964844 359.984375 226.476562 362.386719 226.476562 362.386719 C 226.476562 362.386719 226.960938 362.097656 227.875 361.601562 L 226.476562 363.855469 C 226.476562 363.855469 227.1875 363.429688 228.539062 362.726562 C 226.488281 372.390625 226.195312 388.984375 247.53125 391.050781 C 265.421875 392.78125 311.519531 393.496094 346.339844 393.785156 L 348.75 393.785156 C 371.832031 393.964844 389.394531 393.964844 389.394531 393.964844 L 389.394531 393.785156 L 763.898438 393.785156 L 763.898438 391.503906 C 763.902344 389.4375 763.199219 387.390625 761.835938 385.492188 L 762.355469 385.117188 C 764.359375 386.6875 765.691406 388.519531 766.242188 390.464844 C 766.199219 390.652344 766.136719 390.839844 766.058594 391.023438 L 766.285156 390.683594 C 766.375 391.289062 766.296875 391.902344 766.058594 392.496094 C 766.058594 392.496094 814.105469 319.046875 813.589844 275.191406 C 813.726562 270.574219 813.136719 265.957031 811.832031 261.402344 Z M 512.34375 183.371094 C 511.722656 181.277344 511.324219 179.160156 511.148438 177.035156 C 511.148438 177.035156 511.148438 176.996094 511.148438 176.976562 C 511.566406 179.039062 511.972656 181.179688 512.34375 183.371094 Z M 366.773438 341.132812 L 366.773438 358.636719 L 348.300781 360.980469 Z M 366.773438 341.132812 "/>
<path style=" stroke:none;fill-rule:nonzero;fill:rgb(88.235294%,29.411765%,35.294118%);fill-opacity:1;" d="M 567.441406 38.476562 C 614.460938 38.476562 652.574219 61.089844 652.574219 88.984375 L 652.574219 110.535156 L 482.3125 110.535156 L 482.3125 88.984375 C 482.3125 61.089844 520.425781 38.476562 567.441406 38.476562 Z M 567.441406 38.476562 "/>
<path style=" stroke:none;fill-rule:nonzero;fill:rgb(88.235294%,29.411765%,35.294118%);fill-opacity:1;" d="M 665.078125 117.597656 C 665.078125 95.75 621.632812 78.039062 568.039062 78.039062 C 514.445312 78.039062 471 95.75 471 117.597656 C 471 139.445312 514.445312 157.160156 568.039062 157.160156 C 621.632812 157.160156 665.078125 139.445312 665.078125 117.597656 Z M 665.078125 117.597656 "/>
<path style=" stroke:none;fill-rule:nonzero;fill:rgb(96.862745%,76.862745%,65.490196%);fill-opacity:1;" d="M 505.832031 155.921875 C 505.832031 155.921875 526.109375 218.792969 505.832031 235.75 C 485.554688 252.707031 567.792969 259.417969 567.792969 259.417969 L 652.910156 241.050781 L 664.820312 195.835938 C 664.820312 195.835938 613 178.527344 623.734375 143.558594 Z M 505.832031 155.921875 "/>
<path style=" stroke:none;fill-rule:nonzero;fill:rgb(96.862745%,76.862745%,65.490196%);fill-opacity:1;" d="M 757.070312 367.859375 C 757.070312 367.859375 762.433594 381.632812 733.253906 384.105469 C 716.027344 385.609375 698.507812 385.488281 681.34375 383.738281 L 674.914062 349.136719 L 742.785156 349.136719 Z M 757.070312 367.859375 "/>
<path style=" stroke:none;fill-rule:nonzero;fill:rgb(96.862745%,76.862745%,65.490196%);fill-opacity:1;" d="M 241.863281 350.226562 C 241.863281 350.226562 228.976562 381.300781 258.15625 384.105469 C 287.332031 386.914062 394.464844 386.933594 394.464844 386.933594 L 394.464844 350.175781 L 345.957031 356.324219 L 300.421875 330.417969 Z M 241.863281 350.226562 "/>
<use xlink:href="#surface71" mask="url(#mask22)"/>
<path style=" stroke:none;fill-rule:nonzero;fill:rgb(34.117647%,34.901961%,53.333333%);fill-opacity:1;" d="M 512.097656 174.824219 L 398.082031 189.125 C 398.082031 189.125 354.621094 190.1875 326.636719 224.449219 C 298.652344 258.710938 237.910156 356.570312 237.910156 356.570312 C 237.910156 356.570312 289.730469 325.484375 350.441406 358.6875 L 390.925781 315.246094 L 381.992188 384.105469 L 695.71875 384.105469 L 695.71875 351.609375 C 695.71875 351.609375 761.203125 372.449219 756.449219 384.105469 C 756.449219 384.105469 812.496094 298.4375 800.386719 259.503906 C 796.738281 247.46875 794.503906 235.296875 793.695312 223.078125 C 792.226562 202.457031 769.050781 184.613281 735.8125 178.519531 C 729.910156 177.441406 723.421875 176.433594 716.210938 175.53125 C 648.933594 167.058594 631.722656 175.53125 631.722656 175.53125 C 631.722656 175.53125 618.6875 200.6875 618.925781 212.089844 C 619.21875 226.75 583.800781 236.464844 583.800781 236.464844 C 583.800781 236.464844 531.40625 229.046875 529.027344 223.046875 C 526.652344 217.042969 507.90625 181.886719 512.097656 174.824219 Z M 512.097656 174.824219 "/>
<use xlink:href="#surface74" mask="url(#mask23)"/>
<path style=" stroke:none;fill-rule:nonzero;fill:rgb(96.862745%,76.862745%,65.490196%);fill-opacity:1;" d="M 648.710938 135.789062 C 648.519531 162.015625 612.914062 183.300781 568.714844 183.621094 C 524.519531 183.9375 488.058594 163.167969 486.792969 136.953125 C 486.792969 136.566406 486.792969 136.179688 486.792969 135.789062 C 486.785156 117.4375 504.398438 100.6875 532.183594 92.621094 C 534.609375 91.917969 537.101562 91.285156 539.664062 90.722656 C 552.980469 87.816406 567.347656 87.027344 581.34375 88.425781 C 618.265625 92.152344 646.042969 110.429688 648.496094 132.601562 C 648.640625 133.660156 648.710938 134.722656 648.710938 135.789062 Z M 648.710938 135.789062 "/>
<use xlink:href="#surface77" mask="url(#mask24)"/>
<path style=" stroke:none;fill-rule:nonzero;fill:rgb(38.823529%,14.901961%,32.156863%);fill-opacity:1;" d="M 539.539062 90.761719 L 539.652344 90.722656 C 537.089844 91.285156 534.597656 91.917969 532.171875 92.621094 C 504.386719 100.6875 486.777344 117.4375 486.78125 135.789062 C 486.78125 136.179688 486.78125 136.566406 486.78125 136.953125 C 489.300781 136.914062 491.777344 136.5625 494.050781 135.917969 C 513.785156 130.449219 525.59375 113.726562 530.277344 102.066406 C 531.96875 97.914062 533.554688 93.191406 539.539062 90.761719 Z M 539.539062 90.761719 "/>
<path style=" stroke:none;fill-rule:nonzero;fill:rgb(38.823529%,14.901961%,32.156863%);fill-opacity:1;" d="M 601.507812 92.113281 C 595.101562 90.367188 588.332031 89.128906 581.378906 88.429688 C 587.082031 89.210938 592.171875 91.109375 595.832031 93.816406 C 597.625 95.265625 599.109375 96.835938 600.257812 98.496094 C 578.449219 92.839844 553.554688 93.144531 532.160156 99.332031 C 537.242188 105.941406 553 109.542969 563.523438 111.957031 C 575.042969 114.59375 586.683594 117.007812 598.445312 119.195312 L 588.035156 114.183594 L 611.546875 116.402344 C 611.800781 113.625 611.242188 110.84375 609.902344 108.179688 C 614.40625 110.332031 620.378906 111.054688 625.265625 112.859375 C 634.425781 116.289062 638.246094 122.886719 643.234375 128.597656 C 644.554688 130.109375 646.109375 131.652344 648.484375 132.609375 C 646.527344 115.019531 628.5 99.480469 601.507812 92.113281 Z M 601.507812 92.113281 "/>
<use xlink:href="#surface80" mask="url(#mask25)"/>
<path style=" stroke:none;fill-rule:nonzero;fill:rgb(88.235294%,29.411765%,35.294118%);fill-opacity:1;" d="M 477.546875 126.78125 C 477.546875 126.78125 560.910156 65.292969 657.351562 126.78125 L 649.015625 113.007812 C 649.015625 113.007812 603.761719 73.800781 571.621094 82.261719 C 539.480469 90.722656 507.917969 96.746094 507.917969 96.746094 Z M 477.546875 126.78125 "/>
<use xlink:href="#surface83" mask="url(#mask26)"/>
<use xlink:href="#surface86" mask="url(#mask27)"/>
<path style=" stroke:none;fill-rule:nonzero;fill:rgb(32.54902%,32.941176%,38.039216%);fill-opacity:1;" d="M 381.691406 369.804688 L 725.808594 369.804688 C 741.59375 369.804688 754.390625 377.394531 754.390625 386.761719 L 353.121094 386.761719 C 353.121094 377.398438 365.910156 369.808594 381.691406 369.804688 Z M 381.691406 369.804688 "/>
<path style=" stroke:none;fill-rule:nonzero;fill:rgb(32.54902%,32.941176%,38.039216%);fill-opacity:1;" d="M 416.703125 253.234375 L 690.808594 253.234375 C 715.074219 253.234375 734.742188 264.90625 734.742188 279.300781 L 734.742188 373.6875 L 372.765625 373.6875 L 372.765625 279.300781 C 372.765625 264.90625 392.4375 253.234375 416.703125 253.234375 Z M 416.703125 253.234375 "/>
<path style=" stroke:none;fill-rule:nonzero;fill:rgb(100%,100%,100%);fill-opacity:1;" d="M 574.890625 318.761719 C 574.890625 325.785156 565.289062 331.480469 553.449219 331.480469 C 541.609375 331.480469 532.011719 325.785156 532.011719 318.761719 C 532.011719 311.738281 541.609375 306.042969 553.449219 306.042969 C 565.289062 306.042969 574.890625 311.738281 574.890625 318.761719 Z M 574.890625 318.761719 "/>
<use xlink:href="#surface89" mask="url(#mask28)"/>
<path style=" stroke:none;fill-rule:nonzero;fill:rgb(41.568627%,36.078431%,60%);fill-opacity:1;" d="M 665.054688 95.957031 L 673.28125 95.957031 L 673.28125 123.621094 L 665.054688 123.621094 Z M 665.054688 95.957031 "/>
<path style=" stroke:none;fill-rule:nonzero;fill:rgb(100%,81.568627%,21.568627%);fill-opacity:1;" d="M 654.082031 113.855469 C 669.738281 113.855469 682.425781 121.382812 682.425781 130.671875 L 682.425781 131.753906 C 682.425781 141.042969 669.738281 148.570312 654.082031 148.570312 Z M 654.082031 113.855469 "/>
<path style=" stroke:none;fill-rule:nonzero;fill:rgb(41.568627%,36.078431%,60%);fill-opacity:1;" d="M 654.996094 112.230469 C 658.53125 112.230469 661.394531 113.929688 661.394531 116.027344 L 661.394531 146.40625 C 661.394531 148.5 658.53125 150.199219 654.996094 150.199219 C 651.460938 150.199219 648.597656 148.5 648.597656 146.40625 L 648.597656 116.027344 C 648.597656 113.929688 651.460938 112.230469 654.996094 112.230469 Z M 654.996094 112.230469 "/>
<path style=" stroke:none;fill-rule:nonzero;fill:rgb(41.568627%,36.078431%,60%);fill-opacity:1;" d="M 468.996094 124.160156 L 460.773438 124.160156 L 460.773438 96.496094 L 468.996094 96.496094 Z M 468.996094 124.160156 "/>
<path style=" stroke:none;fill-rule:nonzero;fill:rgb(100%,81.568627%,21.568627%);fill-opacity:1;" d="M 479.96875 149.109375 C 464.3125 149.109375 451.625 141.582031 451.625 132.296875 L 451.625 131.210938 C 451.625 121.925781 464.3125 114.398438 479.96875 114.398438 Z M 479.96875 149.109375 "/>
<path style=" stroke:none;fill-rule:nonzero;fill:rgb(41.568627%,36.078431%,60%);fill-opacity:1;" d="M 479.054688 150.734375 C 475.519531 150.734375 472.65625 149.035156 472.65625 146.9375 L 472.65625 116.5625 C 472.65625 114.464844 475.519531 112.765625 479.054688 112.765625 C 482.589844 112.765625 485.453125 114.464844 485.453125 116.5625 L 485.453125 146.9375 C 485.453125 149.035156 482.589844 150.734375 479.054688 150.734375 Z M 479.054688 150.734375 "/>
<path style=" stroke:none;fill-rule:nonzero;fill:rgb(100%,81.568627%,21.568627%);fill-opacity:1;" d="M 664.085938 66.386719 C 652.945312 52.648438 628.679688 36.03125 576.375 34.703125 L 576.375 34.660156 L 575.746094 34.660156 L 557.214844 35.183594 L 557.214844 35.234375 C 505.257812 36.652344 481.105469 53.207031 469.996094 66.902344 C 462.601562 76.1875 458.671875 86.308594 458.484375 96.578125 L 464.882812 96.484375 L 471.28125 96.398438 C 471.558594 87.253906 475.101562 78.253906 481.679688 69.984375 C 495.785156 52.792969 521.738281 43.65625 558.8125 42.808594 L 575.203125 42.265625 C 612.300781 43.109375 638.265625 52.257812 652.359375 69.441406 C 658.949219 77.714844 662.5 86.722656 662.78125 95.871094 L 669.179688 95.957031 L 675.578125 96.050781 C 675.394531 85.789062 671.472656 75.667969 664.085938 66.386719 Z M 664.085938 66.386719 "/>
<path style=" stroke:none;fill-rule:nonzero;fill:rgb(83.921569%,83.921569%,89.019608%);fill-opacity:1;" d="M 83.679688 386.980469 L 956.410156 386.980469 L 956.410156 526 L 83.679688 526 Z M 83.679688 386.980469 "/>
<use xlink:href="#surface92" mask="url(#mask29)"/>
<path style=" stroke:none;fill-rule:nonzero;fill:rgb(83.921569%,83.921569%,89.019608%);fill-opacity:1;" d="M 25.132812 384.976562 L 1014.933594 384.976562 L 1014.933594 403.023438 L 25.132812 403.023438 Z M 25.132812 384.976562 "/>
</g>
</svg>
